:version 1.10
:name ASF
:units
  mass 1
  length 1
  angle deg
:documentation
  ASF file generated by Kaydara
:root
  axis xyz
  order  tx ty tz rx ry rz
  position 0 0 0
  orientation 0 0 0
:bonedata
  begin
    id 1
    name RightUpLegDummy
    direction -0.65628 -0.754516 0.00165102
    length 4.76918
    axis 0 0 0 xyz
  end
  begin
    id 2
    name RightUpLeg
    direction -0.145584 -0.923362 0.355256
    length 17.9961
    axis -24.7611 -13.1006 1.78531 xyz
    dof rx ry rz
  end
  begin
    id 3
    name RightLeg
    direction 0.263379 0.172355 -0.949171
    length 13.3386
    axis 89.6202 -21.1929 12.3855 xyz
    dof rx ry rz
  end
  begin
    id 4
    name RightFoot
    direction 0.224283 -0.968777 -0.105675
    length 5.86697
    axis 56.995 -39.6905 17.3365 xyz
    dof rx ry rz
  end
  begin
    id 5
    name RightToes
    direction -0.0806345 -0.9037 0.420506
    length 4.75197
    axis 146.825 -39.7828 17.6019 xyz
    dof rx ry rz
  end
  begin
    id 6
    name SpineDummy
    direction -3.39852e-014 1 9.33296e-014
    length 8.13779
    axis 0 0 0 xyz
  end
  begin
    id 7
    name Spine
    direction -0.156609 0.733703 0.661176
    length 7.14978
    axis 41.2365 5.68757 17.0844 xyz
    dof rx ry rz
  end
  begin
    id 8
    name Spine1
    direction 0 0 0
    length 0
    axis 42.8809 47.8308 -3.36039 xyz
    dof rx ry rz
  end
  begin
    id 9
    name HEadDummy
    direction 0.546431 0.701947 0.456819
    length 3.55512
    axis 42.8809 47.8308 -3.36039 xyz
  end
  begin
    id 10
    name HEad
    direction 0.23444 0.828559 0.508457
    length 7.35827
    axis 51.1864 49.2662 27.4903 xyz
    dof rx ry rz
  end
  begin
    id 11
    name LeftShoulder1Dummy
    direction 0.431183 0.475873 -0.766568
    length 2.49352
    axis 42.8809 47.8308 -3.36039 xyz
  end
  begin
    id 12
    name LeftShoulder1
    direction 0.268187 -0.383402 -0.883786
    length 4.48604
    axis -119.517 0.106469 35.1736 xyz
    dof rx ry rz
  end
  begin
    id 13
    name LeftArm
    direction 0.380567 -0.703221 -0.600541
    length 10.1142
    axis -5.41825 36.2925 7.8293 xyz
    dof rx ry rz
  end
  begin
    id 14
    name LeftForeArm
    direction 0.541071 -0.732356 -0.413396
    length 9.39839
    axis 4.65387 33.7604 7.81644 xyz
    dof rx ry rz
  end
  begin
    id 15
    name LeftHand
    direction 0.847511 -0.389379 -0.360707
    length 3.66142
    axis 7.65593 21.1436 -24.6758 xyz
    dof rx ry rz
  end
  begin
    id 16
    name RightShoulderDummy
    direction -0.692546 0.541855 0.476208
    length 2.49352
    axis 42.8809 47.8308 -3.36039 xyz
  end
  begin
    id 17
    name RightShoulder
    direction -0.870808 -0.316653 0.376065
    length 4.48602
    axis 141.571 51.133 -100.254 xyz
    dof rx ry rz
  end
  begin
    id 18
    name RightArm
    direction 0.366897 -0.87275 0.322015
    length 10.1142
    axis 92.3258 71.2036 138.917 xyz
    dof rx ry rz
  end
  begin
    id 19
    name RightForeArm
    direction 0.702487 -0.694568 0.155197
    length 9.39835
    axis 153.863 41.5092 -176.604 xyz
    dof rx ry rz
  end
  begin
    id 20
    name RightHand
    direction 0.79502 -0.601276 0.0800636
    length 3.66142
    axis 154.247 4.59222 142.9 xyz
    dof rx ry rz
  end
  begin
    id 21
    name LeftUpLegDummy
    direction 0.65628 -0.754516 0.00165102
    length 4.76919
    axis 0 0 0 xyz
  end
  begin
    id 22
    name LeftUpLeg
    direction -0.1277 -0.689368 0.713067
    length 17.9961
    axis -48.3385 -17.8675 0.791927 xyz
    dof rx ry rz
  end
  begin
    id 23
    name LeftLeg
    direction 0.109849 -0.991246 -0.0732378
    length 13.3386
    axis -2.05791 -7.30784 1.72042 xyz
    dof rx ry rz
  end
  begin
    id 24
    name LeftFoot
    direction 0.0448355 -0.272614 0.961078
    length 5.86697
    axis -18.7733 -7.89606 10.2113 xyz
    dof rx ry rz
  end
  begin
    id 25
    name LeftToes
    direction -0.18506 0.293668 0.937823
    length 4.75197
    axis 71.2267 -7.89606 10.2113 xyz
    dof rx ry rz
  end
:hierarchy
  begin
    root RightUpLegDummy SpineDummy LeftUpLegDummy
    RightUpLegDummy RightUpLeg
    RightUpLeg RightLeg
    RightLeg RightFoot
    RightFoot RightToes
    SpineDummy Spine
    Spine Spine1
    Spine1 HEadDummy LeftShoulder1Dummy RightShoulderDummy
    HEadDummy HEad
    LeftShoulder1Dummy LeftShoulder1
    LeftShoulder1 LeftArm
    LeftArm LeftForeArm
    LeftForeArm LeftHand
    RightShoulderDummy RightShoulder
    RightShoulder RightArm
    RightArm RightForeArm
    RightForeArm RightHand
    LeftUpLegDummy LeftUpLeg
    LeftUpLeg LeftLeg
    LeftLeg LeftFoot
    LeftFoot LeftToes
  end

:SAMPLES-PER-SECOND 30
:FULLY-SPECIFIED
:DEGREES
149
root  22.2422 35.4287 2.60842 152.108 38.6283 169.72
RightUpLeg  3.59633 3.7298 4.06905
RightLeg  -54.4226 -4.45724 -12.762
RightFoot  21.9079 2.07701 -12.0695
RightToes  -1.27222e-014 -6.36111e-015 6.36111e-015
Spine  -15.5294 -12.4721 -5.31216
Spine1  4.4716 -11.5621 30.285
HEad  33.1087 4.28058 -10.7694
LeftShoulder1  6.36111e-015 -1.33558e-015 6.49777e-015
LeftArm  27.715 -16.8385 -50.4917
LeftForeArm  -11.3105 -48.9431 10.5972
LeftHand  -3.2354 -8.1301 -12.8992
RightShoulder  -4.77083e-015 -6.36111e-015 -3.18055e-015
RightArm  39.0247 -8.89725 -3.16471
RightForeArm  -50.1169 21.9943 -53.8573
RightHand  -1.73187 5.48408 9.86575
LeftUpLeg  13.8322 29.0333 -1.60275
LeftLeg  -19.7763 -18.1702 -2.50215
LeftFoot  17.7836 10.9248 -22.9433
LeftToes  9.54166e-015 -1.91609e-011 -2.3878e-011
150
root  21.4551 34.7489 2.68224 151.665 34.4681 167.917
RightUpLeg  3.28168 8.75534 5.88334
RightLeg  -58.1593 -13.2473 -2.55714
RightFoot  18.9314 9.89395 -23.7412
RightToes  -1.27222e-014 -6.36111e-015 6.36111e-015
Spine  -11.6923 -11.6781 -4.49427
Spine1  4.43446 -10.6026 27.3856
HEad  30.7712 0.559391 -11.7921
LeftShoulder1  6.36111e-015 -1.33558e-015 6.49777e-015
LeftArm  23.733 -18.5141 -47.0448
LeftForeArm  -5.4969 -44.7467 5.77075
LeftHand  -2.87411 -6.88892 -11.1319
RightShoulder  -4.77083e-015 -6.36111e-015 -3.18055e-015
RightArm  37.9337 -4.83221 -7.00725
RightForeArm  -38.9051 21.5209 -42.1968
RightHand  -1.19818 3.73909 5.82095
LeftUpLeg  8.97803 24.7658 0.679912
LeftLeg  -22.0424 -7.03164 -8.76955
LeftFoot  16.9028 7.82225 -16.8582
LeftToes  9.54166e-015 -1.91609e-011 -2.3878e-011
151
root  20.6137 33.8438 2.83813 151.87 31.7489 166.101
RightUpLeg  -0.403431 12.8726 6.13524
RightLeg  -58.5287 -20.6616 6.5215
RightFoot  16.68 13.7291 -30.1951
RightToes  -1.27222e-014 -6.36111e-015 6.36111e-015
Spine  -8.39285 -11.0238 -3.1184
Spine1  5.3505 -9.68455 22.9856
HEad  27.3385 -2.2283 -12.2361
LeftShoulder1  6.36111e-015 -1.33558e-015 6.49777e-015
LeftArm  18.5026 -19.2935 -41.4464
LeftForeArm  0.487453 -40.6008 1.72421
LeftHand  -2.06712 -4.40784 -8.58807
RightShoulder  -4.77083e-015 -6.36111e-015 -3.18055e-015
RightArm  37.3057 -1.19107 -11.7284
RightForeArm  -26.0937 18.6225 -29.9499
RightHand  -0.129622 1.07107 -0.423449
LeftUpLeg  3.35199 20.4728 5.31895
LeftLeg  -23.2845 0.182296 -13.0397
LeftFoot  16.4689 7.04238 -15.349
LeftToes  9.54166e-015 -1.91609e-011 -2.3878e-011
152
root  19.7564 33.0981 3.03952 153.183 28.5402 164.539
RightUpLeg  -6.89031 13.9965 2.57525
RightLeg  -55.4501 -23.4999 8.46051
RightFoot  16.4021 14.2198 -31.0656
RightToes  -1.27222e-014 -6.36111e-015 6.36111e-015
Spine  -6.55768 -11.4272 -1.98163
Spine1  6.46858 -9.87416 20.8004
HEad  23.4726 -2.98813 -13.2503
LeftShoulder1  6.36111e-015 -1.33558e-015 6.49777e-015
LeftArm  12.7209 -17.7312 -33.9112
LeftForeArm  4.90594 -35.4822 -1.164
LeftHand  -0.808762 -1.1588 -4.94396
RightShoulder  -4.77083e-015 -6.36111e-015 -3.18055e-015
RightArm  36.7808 1.49032 -16.8292
RightForeArm  -13.0801 14.4272 -19.2481
RightHand  1.24147 -1.05768 -7.51598
LeftUpLeg  -1.78094 15.0695 9.99606
LeftLeg  -25.5538 2.55923 -14.5052
LeftFoot  15.9293 7.33756 -16.1755
LeftToes  9.54166e-015 -1.91609e-011 -2.3878e-011
